# xmcd CD database file
#
# Track frame offsets:
#	150
#	14184
#	26968
#	40023
#	49814
#	64505
#	76749
#	87690
#	99062
#	111435
#	119600
#	131920
#	140927
#	153472
#	164946
#	177818
#	189168
#
# Disc length: 2670 seconds
#
# Revision: 1
# Processed by: cddbd v1.5.2PL0 Copyright (c) Steve Scherf et al.
# Submitted via: CDex 1.51
#
DISCID=f60a6c11
DTITLE=Kitty Wells - It Wasn't God Who Made Honky Tonk Angels
DYEAR=1994
DGENRE=Classic Country
TTITLE0=I Don't Claim To Be An Angel
TTITLE1=Release Me
TTITLE2=Making Believe
TTITLE3=Whose Shoulder Will You Cry On
TTITLE4=One By One
TTITLE5=Lonely Side Of Town
TTITLE6=Searching
TTITLE7=Mommy For A Day
TTITLE8=Left To Right
TTITLE9=After Dark
TTITLE10=Password
TTITLE11=I'll Repossess My Heart
TTITLE12=As Long As I Love
TTITLE13=It Wasn't God That Made Honky Tonk Angels
TTITLE14=This White Circle On My Finger
TTITLE15=I've Kissed You My Last Time
TTITLE16=There's A Poison In My Heart
EXTD=YEAR: 1994
EXTT0=
EXTT1=
EXTT2=
EXTT3=
EXTT4=
EXTT5=
EXTT6=
EXTT7=
EXTT8=
EXTT9=
EXTT10=
EXTT11=
EXTT12=
EXTT13=
EXTT14=
EXTT15=
EXTT16=
PLAYORDER=
